<svg id="Layer_1" data-name="Layer 1" xmlns="http://www.w3.org/2000/svg" xmlns:xlink="http://www.w3.org/1999/xlink" viewBox="0 0 280 300"><defs><style>.cls-1,.cls-2,.cls-3{fill-rule:evenodd;}.cls-1{fill:url(#linear-gradient);}.cls-2{fill:url(#linear-gradient-2);}.cls-3{fill:url(#linear-gradient-3);}.cls-4{fill:#3261ad;}</style><linearGradient id="linear-gradient" x1="115.29" y1="158.47" x2="115.29" y2="139.35" gradientUnits="userSpaceOnUse"><stop offset="0" stop-color="#3261ad"/><stop offset="1" stop-color="#36b0e5"/></linearGradient><linearGradient id="linear-gradient-2" x1="161.03" y1="148.06" x2="161.03" y2="133.47" xlink:href="#linear-gradient"/><linearGradient id="linear-gradient-3" x1="140" y1="195.6" x2="140" y2="104.64" xlink:href="#linear-gradient"/></defs><title>sap logo</title><path class="cls-1" d="M115.41,139.32,121,157.47a16.78,16.78,0,0,1-5.68,1,16.41,16.41,0,0,1-5.8-1l5.74-18.1Z"/><path class="cls-2" d="M167.8,140.66c0,5.62-4.23,7.38-9.55,7.38h-4V133.45h4C163.57,133.45,167.8,135.22,167.8,140.66Z"/><path class="cls-3" d="M48.06,104.51v91H141l90.95-91Zm112,56h-5.84v17.38H127.45l-2.66-8.32a31.25,31.25,0,0,1-19.1-.07l-2.76,8.39H86.49L88.3,173l-.65.57c-4.11,3.29-9.23,5.11-15.58,5.22h-.95a41.81,41.81,0,0,1-20.49-5.45l5.6-11.1c6.05,3.58,9.85,4.38,15,4.27,2.66-.05,4.58-.53,5.84-1.83a4.12,4.12,0,0,0,1.18-2.82c0-2.89-4-4.24-9.07-5.79-4.08-1.27-8.7-3-12.3-5.64a14.18,14.18,0,0,1-6.23-12.64A15.27,15.27,0,0,1,55,127.26c4-4.11,10.4-6.61,18.1-6.61h0a49,49,0,0,1,20.51,4.85l-6.31,10.95c-6.38-3.08-9.59-3.37-13.23-3.57-5.42-.29-8.16,1.65-8.19,3.74,0,2.54,5.11,4.85,10,6.41,7.4,2.35,16.78,5.49,18.21,14.56l13.51-36h15.67l15.81,43v-43h18.1c17.3,0,25.43,6.17,25.43,19.61C182.61,153.29,174.24,160.48,160.1,160.48Z"/><path class="cls-4" d="M169,190a1.77,1.77,0,0,0,1.77-1.87c0-1.34-.8-1.94-2.4-1.94h-2.59V193h1V190H168l1.8,2.94h1.15Zm-2.2-.83v-2.1h1.42c.7,0,1.46.15,1.46,1,0,1.05-.78,1.1-1.63,1.1Zm1.26-5.47a5.9,5.9,0,1,0,5.95,5.88A5.88,5.88,0,0,0,168,183.69Zm0,10.81a4.92,4.92,0,1,1,4.77-4.93A4.77,4.77,0,0,1,168,194.5Zm2.71-6.38c0-1.34-.8-1.94-2.4-1.94h-2.59V193h1V190H168l1.8,2.94h1.15L169,190A1.77,1.77,0,0,0,170.74,188.12Zm-4,1v-2.1h1.42c.7,0,1.46.15,1.46,1,0,1.05-.78,1.1-1.63,1.1Zm2.2.83a1.77,1.77,0,0,0,1.77-1.87c0-1.34-.8-1.94-2.4-1.94h-2.59V193h1V190H168l1.8,2.94h1.15Zm-2.2-.83v-2.1h1.42c.7,0,1.46.15,1.46,1,0,1.05-.78,1.1-1.63,1.1Z"/></svg>